<?xml version="1.0" encoding="UTF-8" standalone="no"?>
<svg
   xmlns:dc="http://purl.org/dc/elements/1.1/"
   xmlns:cc="http://creativecommons.org/ns#"
   xmlns:rdf="http://www.w3.org/1999/02/22-rdf-syntax-ns#"
   xmlns:svg="http://www.w3.org/2000/svg"
   xmlns="http://www.w3.org/2000/svg"
   version="1.1"
   id="svg2985"
   height="1024"
   width="1024">
  <defs
     id="defs2987" />
  <metadata
     id="metadata2990">
    <rdf:RDF>
      <cc:Work
         rdf:about="">
        <dc:format>image/svg+xml</dc:format>
        <dc:type
           rdf:resource="http://purl.org/dc/dcmitype/StillImage" />
        <dc:title></dc:title>
      </cc:Work>
    </rdf:RDF>
  </metadata>
  <g
     transform="translate(0,976)"
     id="layer1">
    <path
       id="path3015"
       transform="translate(0,-976)"
       d="M 512.37695 48.003906 C 509.44111 47.935206 506.54299 48.675831 504 50.144531 L 116.02148 274.14453 C 111.07159 277.00273 108.02214 282.28417 108.02148 288 L 108.02148 736 C 108.02214 741.71583 111.07159 746.99727 116.02148 749.85547 L 504 973.85547 C 508.95051 976.71326 515.04949 976.71326 520 973.85547 L 907.97852 749.85547 C 912.92841 746.99727 915.97786 741.71583 915.97852 736 L 915.97852 288 C 915.97786 282.28417 912.92841 277.00273 907.97852 274.14453 L 520 50.144531 C 517.67843 48.803661 515.05717 48.067576 512.37695 48.003906 z M 512.37695 240.00391 C 515.05717 240.06758 517.67843 240.80366 520 242.14453 L 741.70312 370.14453 C 746.65301 373.00273 749.70246 378.28417 749.70312 384 L 749.70312 640 C 749.70246 645.71583 746.65301 650.99727 741.70312 653.85547 L 520 781.85547 C 515.04949 784.71326 508.95051 784.71326 504 781.85547 L 282.29688 653.85547 C 277.34699 650.99727 274.29753 645.71583 274.29688 640 L 274.29688 384 C 274.29753 378.28417 277.34699 373.00273 282.29688 370.14453 L 504 242.14453 C 506.54299 240.67583 509.44111 239.93521 512.37695 240.00391 z "
       style="color:#000000;font-style:normal;font-variant:normal;font-weight:normal;font-stretch:normal;font-size:medium;line-height:normal;font-family:sans-serif;text-indent:0;text-align:start;text-decoration:none;text-decoration-line:none;text-decoration-style:solid;text-decoration-color:#000000;letter-spacing:normal;word-spacing:normal;text-transform:none;direction:ltr;block-progression:tb;writing-mode:lr-tb;baseline-shift:baseline;text-anchor:start;white-space:normal;clip-rule:nonzero;display:inline;overflow:visible;visibility:visible;opacity:1;isolation:auto;mix-blend-mode:normal;color-interpolation:sRGB;color-interpolation-filters:linearRGB;solid-color:#000000;solid-opacity:1;fill:#ffffff;fill-opacity:1;fill-rule:nonzero;stroke:none;stroke-width:32;stroke-linecap:round;stroke-linejoin:round;stroke-miterlimit:4;stroke-dasharray:none;stroke-dashoffset:0;stroke-opacity:1;color-rendering:auto;image-rendering:auto;shape-rendering:auto;text-rendering:auto;enable-background:accumulate" />
    <path
       transform="translate(0,-976)"
       d="m 512.00001,704 -166.27688,-96 -1e-5,-192 166.27687,-96 166.27688,96 10e-6,192 z"
       id="path3837"
       style="fill:#ffffff;fill-opacity:1;stroke:#ffffff;stroke-width:32;stroke-linecap:round;stroke-linejoin:round;stroke-miterlimit:4;stroke-opacity:1;stroke-dasharray:none" />
    <path
       style="fill:#ffffff;fill-opacity:1;stroke:#ffffff;stroke-width:32;stroke-linecap:round;stroke-linejoin:round;stroke-miterlimit:4;stroke-opacity:1;stroke-dasharray:none"
       id="path3849"
       d="m 512.00001,704 -166.27688,-96 -1e-5,-192 166.27687,-96 166.27688,96 10e-6,192 z"
       transform="matrix(0.76980034,0,0,0.76980034,117.86222,-858.13778)" />
    <path
       transform="matrix(0.55156682,0,0,0.55156682,229.59779,-704.50138)"
       d="m 512.00001,704 -166.27688,-96 -1e-5,-192 166.27687,-96 166.27688,96 10e-6,192 z"
       id="path3851"
       style="fill:#ffffff;fill-opacity:1;stroke:#ffffff;stroke-width:43.51240707;stroke-linecap:round;stroke-linejoin:round;stroke-miterlimit:4;stroke-opacity:1;stroke-dasharray:none" />
  </g>
</svg>
